<svg width="36" height="35" viewBox="0 0 36 35" fill="none" xmlns="http://www.w3.org/2000/svg">
<rect width="36" height="35" rx="10" fill="#EF233C"/>
<path d="M16.5448 26.5C16.5448 27.0523 16.9925 27.5 17.5448 27.5C18.0971 27.5 18.5448 27.0523 18.5448 26.5H16.5448ZM18.2519 10.2929C17.8614 9.90237 17.2282 9.90237 16.8377 10.2929L10.4737 16.6569C10.0832 17.0474 10.0832 17.6805 10.4737 18.0711C10.8643 18.4616 11.4974 18.4616 11.8879 18.0711L17.5448 12.4142L23.2017 18.0711C23.5922 18.4616 24.2253 18.4616 24.6159 18.0711C25.0064 17.6805 25.0064 17.0474 24.6159 16.6569L18.2519 10.2929ZM18.5448 26.5V22.5H16.5448V26.5H18.5448ZM18.5448 22.5L18.5448 11H16.5448L16.5448 22.5H18.5448Z" fill="#FAFAFA"/>
</svg>
