<svg width="437" height="374" viewBox="0 0 437 374" fill="none" xmlns="http://www.w3.org/2000/svg">
<path d="M134.585 11.9059C157.059 23.9366 172.911 44.1709 192.121 60.4143C216.013 80.5385 245.093 94.4924 276.498 100.902C302.248 106.118 329.152 106.195 353.965 114.398C402.375 130.295 435.53 177.473 436.365 225.441C437.199 273.41 408.04 319.913 365.181 346.211C350.585 355.172 334.606 361.983 317.801 366.407C286.283 374.707 252.86 374.341 220.291 371.169C164.033 365.684 105.055 335.781 69.5919 293.625C53.7841 274.784 40.424 254.251 29.7927 232.459C12.2295 196.627 2.25363 157.948 0.417084 118.563C-1.07642 84.8228 0.417084 47.4196 29.0202 22.828C57.6233 -1.76366 101.058 -6.05346 134.585 11.9059Z" fill="#EF233C"/>
<path opacity="0.7" d="M134.585 11.9059C157.059 23.9366 172.911 44.1709 192.121 60.4143C216.013 80.5385 245.093 94.4924 276.498 100.902C302.248 106.118 329.152 106.195 353.965 114.398C402.375 130.295 435.53 177.473 436.365 225.441C437.199 273.41 408.04 319.913 365.181 346.211C350.585 355.172 334.606 361.983 317.801 366.407C286.283 374.707 252.86 374.341 220.291 371.169C164.033 365.684 105.055 335.781 69.5919 293.625C53.7841 274.784 40.424 254.251 29.7927 232.459C12.2295 196.627 2.25363 157.948 0.417084 118.563C-1.07642 84.8228 0.417084 47.4196 29.0202 22.828C57.6233 -1.76366 101.058 -6.05346 134.585 11.9059Z" fill="#F9F9F9"/>
</svg>
