<svg width="438" height="373" viewBox="0 0 438 373" fill="none" xmlns="http://www.w3.org/2000/svg">
<path d="M302.485 11.5321C280.011 23.5628 264.159 43.7972 244.95 60.0406C221.057 80.1647 191.977 94.1186 160.572 100.529C134.822 105.744 107.918 105.821 83.1057 114.025C34.6957 129.921 1.53995 177.099 0.705651 225.068C-0.128649 273.036 29.0306 319.54 71.889 345.838C86.4854 354.798 102.465 361.61 119.269 366.033C150.787 374.333 184.21 373.967 216.779 370.796C273.038 365.31 332.015 335.407 367.478 293.251C383.286 274.41 396.646 253.877 407.278 232.086C424.841 196.253 434.817 157.574 436.653 118.189C438.147 84.449 436.653 47.0458 408.05 22.4542C379.447 -2.13744 336.012 -6.42724 302.485 11.5321Z" fill="#FFD88D"/>
<path opacity="0.7" d="M302.485 11.5321C280.011 23.5628 264.159 43.7972 244.95 60.0406C221.057 80.1647 191.977 94.1186 160.572 100.529C134.822 105.744 107.918 105.821 83.1057 114.025C34.6957 129.921 1.53995 177.099 0.705651 225.068C-0.128649 273.036 29.0306 319.54 71.889 345.838C86.4854 354.798 102.465 361.61 119.269 366.033C150.787 374.333 184.21 373.967 216.779 370.796C273.038 365.31 332.015 335.407 367.478 293.251C383.286 274.41 396.646 253.877 407.278 232.086C424.841 196.253 434.817 157.574 436.653 118.189C438.147 84.449 436.653 47.0458 408.05 22.4542C379.447 -2.13744 336.012 -6.42724 302.485 11.5321Z" fill="#F9F9F9"/>
</svg>
